# xmcd
#
# Track frame offsets: 
#        150
#        12150
#        26543
#        48739
#        70469
#        87903
#        98116
#        120493
#        142497
#        164869
#        183608
#        201947
#        219985
#        241481
#        258537
#        272788
#        292365
#        313363
#        328014
#
# Disc length: 4565 seconds
#
# Revision: 1
# Processed by: cddbd v1.5.2PL0 Copyright (c) Steve Scherf et al.
# Submitted via: ExactAudioCopy v1.0b3
#
DISCID=3d11d313
DTITLE=Fredrik Backman - Ein Mann namens Ove CD1
DYEAR=2014
DGENRE=Hörbuch
TTITLE0=Ein Mann namens Ove kauft einen Computer, der kein Computer is
TTITLE0=t (1)
TTITLE1=Ein Mann namens Ove kauft einen Computer, der kein Computer is
TTITLE1=t (2)
TTITLE2=Drei Wochen zuvor: Ein Mann namens Ove dreht eine Kontrollrund
TTITLE2=e durch die Siedlung (1)
TTITLE3=Drei Wochen zuvor: Ein Mann namens Ove dreht eine Kontrollrund
TTITLE3=e durch die Siedlung (2)
TTITLE4=Drei Wochen zuvor: Ein Mann namens Ove dreht eine Kontrollrund
TTITLE4=e durch die Siedlung (3)
TTITLE5=Drei Wochen zuvor: Ein Mann namens Ove dreht eine Kontrollrund
TTITLE5=e durch die Siedlung (4)
TTITLE6=Ein Mann namens Ove parkt mit Anhänger rückwärts ein (1)
TTITLE7=Ein Mann namens Ove parkt mit Anhänger rückwärts ein (2)
TTITLE8=Ein Mann namens Ove parkt mit Anhänger rückwärts ein (3)
TTITLE9=Ein Mann namens Ove bezahlt keine drei Kronen Gebühr (1)
TTITLE10=Ein Mann namens Ove bezahlt keine drei Kronen Gebühr (2)
TTITLE11=Ein Mann namens Ove bezahlt keine drei Kronen Gebühr (3)
TTITLE12=Ein Mann namens Ove bezahlt keine drei Kronen Gebühr (4)
TTITLE13=Ein Junge namens Ove (1)
TTITLE14=Ein Junge namens Ove (2)
TTITLE15=Ein Junge namens Ove (3)
TTITLE16=Ein Junge namens Ove (4)
TTITLE17=Ein Mann namens Ove und ein Fahrrad, das dort stehen soll, wo
TTITLE17=Fahrräder stehen sollen (1)
TTITLE18=Ein Mann namens Ove und ein Fahrrad, das dort stehen soll, wo
TTITLE18=Fahrräder stehen sollen (2)
EXTD=
EXTT0=
EXTT1=
EXTT2=
EXTT3=
EXTT4=
EXTT5=
EXTT6=
EXTT7=
EXTT8=
EXTT9=
EXTT10=
EXTT11=
EXTT12=
EXTT13=
EXTT14=
EXTT15=
EXTT16=
EXTT17=
EXTT18=
PLAYORDER=
